<?xml version="1.0" encoding="UTF-8"?> <!-- Generator: Adobe Illustrator 24.0.2, SVG Export Plug-In . SVG Version: 6.00 Build 0) --> <svg xmlns="http://www.w3.org/2000/svg" xmlns:xlink="http://www.w3.org/1999/xlink" version="1.1" id="Vrstva_1" x="0px" y="0px" viewBox="0 0 981.6 145" style="enable-background:new 0 0 981.6 145;" xml:space="preserve"> <style type="text/css"> .st0{fill:#FFFFFF;} .st1{fill:none;stroke:#FFFFFF;stroke-width:3.7949;stroke-miterlimit:57.4118;} .st2{fill:none;stroke:#FFFFFF;stroke-width:16.6092;stroke-miterlimit:57.4118;} </style> <path class="st0" d="M962.7,60.7c-1.2-12.6-3.9-31.5-14-42.5c-8-8.8-20.9-14.2-32.8-14.2h-0.1c-11.9,0-24.8,5.4-32.8,14.2 c-10,11-12.8,29.9-14,42.5c-0.7,9.7,1.4,23.6,3.5,29c5.4,13.7,14,25.2,22.6,36.6c4.9,6.5,13.6,13.2,20.7,13.2h0.1 c7.1,0,15.9-6.7,20.7-13.2c8.6-11.4,17.2-22.9,22.6-36.6C961.3,84.3,963.4,70.4,962.7,60.7 M875.2,74c3.4,1.1,7.9,1.1,11.6,2.3 c13,4.3,20.7,16.8,25.4,34.9C897.7,113.1,873.5,100.6,875.2,74 M920,111.2c4.6-18.1,12.3-30.6,25.4-34.9c3.7-1.2,8.3-1.3,11.6-2.3 C958.7,100.6,934.5,113.1,920,111.2 M91.3,90.9L85,78.6H36.9l-6.2,12.3H5.4l38.6-72.8h34.4l38.1,72.8H91.3z M77.3,62.7l-14-27.6 h-4.4l-14,27.6L77.3,62.7z M119.7,18.2H143v54.2h51.8v18.6h-75L119.7,18.2z M199.8,90.9h23.3V18.2h-23.3V90.9z M233.3,18.2H314v17.1 h-58.8v10.5H311v16h-55.8v11.7h59.2v17.5h-81L233.3,18.2z M321.3,18.2h38.9l38.1,54.3h2.3L400,18.2h22.6v72.8H384l-38.3-54.3h-2.4 l0.5,54.3h-22.6L321.3,18.2z M426.2,18.2h22.6l19.5,54.5h4.1l16.5-54.5h26.8l16.6,54.5h4.2L556,18.2h23.5l-28.3,72.8H517l-14.6-53.3 l-14.4,53.3h-34.3L426.2,18.2z M647,90.9l-6.2-12.3h-48.1l-6.2,12.3H561l38.6-72.8h34.4l38.1,72.8H647z M633,62.7l-14-27.6h-4.4 l-14,27.6L633,62.7z M675.4,90.9V18.2H729c12.6,0,20.1,0.2,22.6,0.4c2.5,0.2,4.9,1.1,7.2,2.5c2.8,1.7,4.7,4,5.7,6.9 c1,2.9,1.5,7.5,1.5,13.8c0,5.3-0.3,9.2-1,11.7c-0.7,2.5-1.9,4.5-3.7,6c-2,1.6-4.9,2.7-8.9,3.3c4.7,0.4,8,1.7,10,4 c1.2,1.4,1.9,3.1,2.2,5c0.3,2,0.5,6.1,0.5,12.4v6.8h-21.8V87c0-4-0.1-6.9-0.5-8.7c-0.3-1.7-0.9-3-1.7-4c-0.8-0.9-1.9-1.4-3.4-1.6 c-1.5-0.2-4.5-0.4-9-0.4h-31.3v18.5H675.4z M697.6,54.3h31.2c5.4-0.1,8.6-0.2,9.7-0.3c1-0.1,1.9-0.3,2.7-0.8c1-0.6,1.7-1.6,2-2.7 c0.4-1.2,0.6-3,0.6-5.5c0-2.4-0.2-4.2-0.7-5.4c-0.4-1.1-1.2-2.1-2.3-2.6c-0.9-0.4-1.8-0.6-2.8-0.6c-3.1-0.1-6.2-0.2-9.3-0.2h-31.1 V54.3z M773.7,18.2h80.6v17.1h-58.8v10.5h55.8v16h-55.8v11.7h59.2v17.5h-81L773.7,18.2z M5,104.9h3.8v11.9h25.9v-11.9h3.8v28.2h-3.8 v-12.9H8.7v12.9H5L5,104.9z"></path> <path class="st1" d="M47.5,133.1v-28.2"></path> <path class="st0" d="M71.9,118.8h18.5c0,4.4-0.2,7.2-0.4,8.5c-0.3,1.5-0.7,2.5-1.4,3.3c-0.6,0.7-1.6,1.3-2.8,1.7 c-1.7,0.6-5.7,0.8-11.7,0.8c-5.7,0-9.8-0.2-12.1-0.6c-2.1-0.3-3.6-1.2-4.5-2.7c-1-1.6-1.6-5.3-1.6-10.9c0-3.9,0.3-7,0.8-9.2 c0.4-2,1.9-3.5,3.8-4.1c2-0.6,6-1,11.9-1c2,0,4.1,0.1,6.5,0.2c2.4,0.1,4.1,0.2,5,0.3c1.8,0.2,3.3,0.9,4.4,2.1 c0.7,0.7,1.2,1.5,1.4,2.4c0.3,0.9,0.4,2.2,0.5,3.9h-3.9c0-2.2-0.3-3.6-0.9-4.2c-0.4-0.4-1-0.7-1.6-0.8c-1.1-0.2-2.1-0.4-3.2-0.4 c-2.5-0.2-5-0.2-7.5-0.2c-4,0-6.8,0.1-8.5,0.3c-1.7,0.2-2.9,0.6-3.5,1.1c-0.5,0.5-0.9,1.4-1.1,2.7c-0.2,1.3-0.3,3.4-0.3,6.2 c0,4.2,0.2,7,0.5,8.4c0.2,0.7,0.5,1.3,1,1.8c0.5,0.4,1.2,0.6,2.1,0.8c1.8,0.3,5.9,0.4,12.1,0.4c3.4,0,6-0.1,7.6-0.4 c1.5-0.3,2.4-0.8,2.8-1.6c0.4-0.8,0.6-2.7,0.7-5.6H71.9V118.8z M96.7,104.9h3.8v11.9h25.9v-11.9h3.8v28.2h-3.8v-12.9h-25.9v12.9 h-3.8V104.9z"></path> <path class="st2" d="M143.5,124.9v-3.7"></path> <path class="st0" d="M156.8,133.1v-28.2h17.9c4.7,0.1,7.5,0.2,8.5,0.3c0.9,0.1,1.7,0.5,2.5,1c0.8,0.5,1.3,1.2,1.7,1.9 c0.6,1.2,0.9,3.1,0.9,5.5c0,1.9-0.2,3.4-0.5,4.5c-0.3,1-0.8,1.9-1.6,2.6c-0.8,0.6-1.5,1.1-2.4,1.3c-0.8,0.2-2.1,0.4-3.8,0.4 c-0.6,0-2.4,0-5.3,0h-14.1v10.6H156.8z M160.6,119.1h14.1c3.5,0,5.6-0.1,6.5-0.1c0.8-0.1,1.5-0.4,2.1-0.8c0.5-0.4,0.8-0.9,0.9-1.5 c0.2-0.6,0.3-1.6,0.3-2.9c0-1.4-0.1-2.5-0.2-3.1c-0.1-0.5-0.4-1-0.8-1.4c-0.6-0.4-1.3-0.7-2.1-0.8c-2.2-0.2-4.4-0.2-6.6-0.3h-14.1 L160.6,119.1z M193.7,133.1v-28.2h27.7v3.4h-23.9v8.5h22.9v3.4h-22.9v9.6h23.9v3.4L193.7,133.1z M226.9,133.1v-28.2h17.6 c4.8,0.1,7.8,0.2,9.1,0.4c2.3,0.3,3.9,1.4,4.8,3.2c0.6,1.2,0.9,2.9,0.9,5c0,1.6-0.1,2.9-0.3,3.7c-0.1,0.8-0.5,1.5-1,2 c-0.7,0.8-1.9,1.4-3.4,1.7c1.1,0.1,2.1,0.6,2.9,1.4c0.5,0.6,0.9,1.3,1,2.1c0.2,0.8,0.2,2.4,0.2,4.7v4h-3.8v-2.7 c0-2.3-0.1-3.9-0.1-4.7c-0.3-1.8-1.3-2.8-3-3.1c-0.6-0.1-1.2-0.2-1.9-0.2c-1.9,0-3.7-0.1-5.6-0.1h-13.8v10.8H226.9z M230.7,118.9 h13.8c3.7,0,6,0,7-0.1s1.9-0.4,2.5-0.8c1-0.6,1.4-2.2,1.4-4.7c0-2.1-0.5-3.5-1.3-4.1c-0.6-0.4-1.5-0.7-2.7-0.8 c-1.2-0.1-3.6-0.2-7-0.2h-13.8L230.7,118.9z M265.8,133.1v-28.2h26.5v3.4h-22.8v8.8h21.7v3.4h-21.7v12.6L265.8,133.1z M315.4,104.7 c4.8,0,8.2,0.2,10.2,0.5c2,0.3,3.4,0.9,4.3,1.8c0.6,0.6,1,1.3,1.3,2c0.3,0.8,0.5,1.9,0.7,3.3c0.2,1.8,0.3,4,0.3,6.7 c0,3.5-0.2,6.1-0.5,7.9s-0.9,3.1-1.7,3.9c-0.8,0.9-2.2,1.5-4.1,1.8c-1.9,0.3-5,0.5-9.3,0.5c-2.1,0-4.5,0-7.1-0.1 c-1.7,0-3.4-0.1-5.1-0.2c-1.1-0.1-2.3-0.3-3.3-0.7c-0.8-0.3-1.6-0.8-2.2-1.5c-0.8-0.9-1.4-2.1-1.7-3.7c-0.3-1.6-0.4-4.3-0.4-8.1 c0-4.5,0.3-7.7,0.9-9.6c0.7-2.2,2.4-3.5,5.1-4C305.4,104.9,309.5,104.8,315.4,104.7 M313.2,108.1c-3.9,0-6.8,0.2-8.7,0.5 c-1.1,0.2-1.8,0.5-2.3,0.9c-0.5,0.4-0.8,1.1-1,2.1c-0.3,1.6-0.5,3.9-0.5,6.9c0,3.1,0.1,5.4,0.3,6.8c0.2,1.4,0.5,2.4,0.9,2.9 c0.4,0.4,0.9,0.7,1.5,0.9c0.7,0.2,1.8,0.3,3.2,0.4c2.4,0.2,5.2,0.3,8.4,0.3c4.5,0,7.8-0.2,9.9-0.6c1.6-0.3,2.6-1.2,2.9-2.9 c0.3-1.8,0.5-4.2,0.5-7.2c0-3.7-0.1-6.3-0.4-7.9c-0.3-1.6-1.4-2.5-3.2-2.8c-1.2-0.2-2.4-0.3-3.7-0.3 C319.7,108.1,317.1,108.1,313.2,108.1 M338.7,133.1v-28.2h17.6c4.8,0.1,7.8,0.2,9.2,0.4c2.3,0.3,3.9,1.4,4.8,3.2 c0.6,1.2,0.9,2.9,0.9,5c0,1.6-0.1,2.9-0.3,3.7c-0.1,0.8-0.5,1.5-1,2c-0.7,0.8-1.9,1.4-3.4,1.7c1.1,0.1,2.1,0.6,2.9,1.4 c0.5,0.6,0.9,1.3,1,2.1c0.2,0.8,0.2,2.4,0.2,4.7v4h-3.8v-2.7c0-2.3,0-3.9-0.1-4.7c-0.3-1.8-1.3-2.8-3-3.1c-0.6-0.1-1.2-0.2-1.9-0.2 c-1.9,0-3.7-0.1-5.6-0.1h-13.8v10.8H338.7z M342.5,118.9h13.8c3.7,0,6,0,7.1-0.1c1-0.1,1.9-0.4,2.5-0.8c1-0.6,1.5-2.2,1.5-4.7 c0-2.1-0.5-3.5-1.4-4.1c-0.6-0.4-1.5-0.7-2.7-0.8c-1.2-0.1-3.6-0.2-7-0.2h-13.8L342.5,118.9z M377.6,104.9h7.5l15.3,23.9l15-23.9 h7.6v28.2h-3.8v-24.7h-1.6L402,133.1h-3.1L383,108.4h-1.7v24.7h-3.8V104.9z M461.4,133.1l-3.3-5.9h-22.8l-3.4,5.9h-4.3l16-28.2h6 l16,28.2H461.4z M456.2,123.8l-8.8-15.5h-1.5l-8.9,15.5H456.2z M470.1,104.9h6.3l24.7,24.7h0.9v-24.7h3.8v28.2h-6.4l-24.6-24.7h-0.8 v24.7h-3.8L470.1,104.9z M541.5,123.4h3.7c-0.1,2.6-0.3,4.3-0.5,5.3c-0.4,2.1-1.8,3.4-4.2,3.9c-1.9,0.4-5.3,0.6-10.1,0.6 c-6.3,0-10.6-0.2-12.8-0.7c-2.1-0.4-3.5-1.5-4.3-3.3c-0.7-1.8-1.1-5.1-1.1-9.8c0-4.5,0.3-7.8,0.8-9.8c0.7-2.4,2.4-3.8,5.1-4.2 c2.7-0.4,6.5-0.6,11.6-0.6c4.9,0,8.4,0.2,10.5,0.7c1.1,0.2,2,0.7,2.7,1.4c0.7,0.6,1.2,1.4,1.5,2.4c0.2,0.8,0.3,2.5,0.3,5h-3.5v-1 c0-1.4-0.1-2.3-0.4-2.9c-0.3-0.6-0.9-1.1-1.5-1.3c-1.4-0.6-4.6-0.8-9.7-0.8c-3.7,0-6.5,0.1-8.3,0.3c-1.9,0.2-3.1,0.5-3.6,1 c-0.6,0.4-0.9,1.4-1.2,2.7c-0.3,1.9-0.4,3.8-0.4,5.8c0,1.2,0,2.7,0.1,4.5c0.1,1.8,0.2,3.1,0.3,3.8c0.1,1.1,0.5,1.9,1,2.4 c0.5,0.5,1.4,0.8,2.6,0.9c2.1,0.2,5.2,0.3,9.2,0.3c1.2,0,2.8,0,4.8-0.1c2-0.1,3.2-0.2,3.7-0.2c1.1-0.1,1.8-0.3,2.3-0.6 c0.5-0.3,0.9-0.7,1.1-1.3C541.4,127,541.5,125.6,541.5,123.4 M551.1,133.1v-28.2h27.7v3.4h-23.9v8.5h22.9v3.4h-22.9v9.6h23.9v3.4 L551.1,133.1z M597,124.2h3.7c0,0.3,0,0.5,0,0.6c0,1.6,0.1,2.7,0.3,3.2c0.2,0.5,0.7,1,1.3,1.2c1.1,0.5,4.5,0.7,10.3,0.7 c4.2,0,7.2-0.2,9.1-0.6c1.8-0.4,2.7-1.8,2.7-4.2c0-1.2-0.1-2.1-0.4-2.7c-0.3-0.6-0.8-1.1-1.5-1.3c-1-0.3-2-0.4-3-0.4 c-4.1-0.1-8.2-0.1-12.3-0.1c-2.3,0-4.2-0.2-5.6-0.7c-1.3-0.3-2.4-1.1-3.2-2.1c-0.9-1.1-1.3-2.8-1.3-5.2c0-2.5,0.7-4.4,2.1-5.5 c0.7-0.6,1.5-1,2.3-1.3s2-0.5,3.5-0.7c2.5-0.3,5.5-0.5,8.9-0.5c3.2,0,5.6,0.2,7.4,0.5c1.7,0.3,3.1,0.9,4.1,1.7 c0.8,0.6,1.3,1.4,1.6,2.3c0.3,0.9,0.5,2.2,0.5,4h-3.8v-0.4c0-1.4-0.2-2.3-0.5-2.8c-0.4-0.7-1.4-1.3-2.9-1.6 c-1.5-0.3-3.7-0.5-6.6-0.5c-3.6,0-6.4,0.1-8.2,0.4c-1.8,0.3-3.1,0.7-3.7,1.4c-0.6,0.6-0.9,1.6-0.9,3c0,1.3,0.2,2.2,0.5,2.7 c0.3,0.5,0.9,0.9,1.8,1.2c1.3,0.4,3.7,0.6,7.4,0.7c1.2,0,4.3,0,9.2,0c2,0,3.6,0.2,4.7,0.6c1.1,0.4,2,1,2.6,1.9 c0.9,1.2,1.3,2.8,1.3,5c0,2.1-0.4,3.7-1.1,4.9c-0.8,1.4-2.4,2.3-4.7,2.8c-2.3,0.5-6.4,0.7-12.3,0.7c-3.1,0-5.4-0.1-6.9-0.3 c-1.2-0.1-2.4-0.5-3.5-1c-1-0.5-1.7-1.3-2.2-2.3c-0.4-0.9-0.6-2.3-0.6-4.1V124.2z M630.5,104.9h5.1l13.6,13.5l13.2-13.5h5.3 l-16.6,16.7v11.5h-3.8v-11.5L630.5,104.9z M670.4,124.2h3.7c0,0.3,0,0.5,0,0.6c0,1.6,0.1,2.7,0.3,3.2s0.6,1,1.3,1.2 c1,0.5,4.5,0.7,10.3,0.7c4.2,0,7.2-0.2,9.1-0.6c1.8-0.4,2.7-1.8,2.7-4.2c0-1.2-0.2-2.1-0.4-2.7c-0.3-0.6-0.8-1.1-1.5-1.3 c-1-0.3-2-0.4-3-0.4c-4.1-0.1-8.2-0.1-12.3-0.1c-2.3,0-4.2-0.2-5.6-0.7c-1.3-0.3-2.4-1.1-3.2-2.1c-0.9-1.1-1.3-2.8-1.3-5.2 c0-2.5,0.7-4.4,2.1-5.5c0.7-0.6,1.5-1,2.3-1.3c0.8-0.3,2-0.5,3.5-0.7c2.5-0.3,5.5-0.5,8.9-0.5c3.2,0,5.6,0.2,7.4,0.5 c1.7,0.3,3.1,0.9,4.1,1.7c0.8,0.6,1.3,1.4,1.6,2.3c0.3,0.9,0.5,2.2,0.5,4H697v-0.4c0-1.4-0.2-2.3-0.5-2.8c-0.4-0.7-1.4-1.3-2.9-1.6 c-1.5-0.3-3.7-0.5-6.6-0.5c-3.6,0-6.4,0.1-8.2,0.4c-1.8,0.3-3.1,0.7-3.7,1.4c-0.6,0.6-0.9,1.6-0.9,3c0,1.3,0.2,2.2,0.5,2.7 c0.3,0.5,0.9,0.9,1.8,1.2c1.3,0.4,3.7,0.6,7.4,0.7c1.2,0,4.3,0,9.2,0c2,0,3.6,0.2,4.7,0.6c1.1,0.4,2,1,2.6,1.9 c0.9,1.2,1.3,2.8,1.3,5c0,2.1-0.4,3.7-1.1,4.9c-0.8,1.4-2.4,2.3-4.7,2.8c-2.3,0.5-6.4,0.7-12.3,0.7c-3.1,0-5.4-0.1-6.9-0.3 c-1.2-0.1-2.4-0.5-3.5-1c-0.9-0.5-1.7-1.3-2.2-2.3c-0.4-0.9-0.6-2.3-0.6-4.1V124.2z M705.6,104.9h32.1v3.4h-14.1v24.8h-3.8v-24.8 h-14.2V104.9z M742.6,133.1v-28.2h27.7v3.4h-23.9v8.5h22.9v3.4h-22.9v9.6h23.9v3.4L742.6,133.1z M775.8,104.9h7.5l15.3,23.9 l15.1-23.9h7.6v28.2h-3.8v-24.7h-1.6l-15.7,24.7h-3.1l-15.9-24.7h-1.6v24.7h-3.8L775.8,104.9z M827.6,124.2h3.7c0,0.3,0,0.5,0,0.6 c0,1.6,0.1,2.7,0.3,3.2c0.2,0.5,0.6,1,1.3,1.2c1.1,0.5,4.5,0.7,10.3,0.7c4.2,0,7.2-0.2,9-0.6c1.8-0.4,2.7-1.8,2.7-4.2 c0-1.2-0.1-2.1-0.4-2.7c-0.3-0.6-0.8-1.1-1.5-1.3c-1-0.3-2-0.4-3-0.4c-4.1-0.1-8.2-0.1-12.3-0.1c-2.3,0-4.2-0.2-5.6-0.7 c-1.3-0.3-2.4-1.1-3.2-2.1c-0.9-1.1-1.4-2.8-1.4-5.2c0-2.5,0.7-4.4,2.1-5.5c0.7-0.6,1.5-1,2.3-1.3c0.8-0.3,2-0.5,3.5-0.7 c2.5-0.3,5.5-0.5,8.9-0.5c3.2,0,5.6,0.2,7.4,0.5c1.7,0.3,3.1,0.9,4,1.7c0.8,0.7,1.4,1.4,1.7,2.3c0.3,0.9,0.4,2.2,0.5,4h-3.8v-0.4 c0-1.4-0.1-2.3-0.5-2.8c-0.4-0.7-1.4-1.3-2.9-1.6c-1.5-0.3-3.7-0.5-6.6-0.5c-3.7,0-6.4,0.1-8.2,0.4c-1.8,0.3-3.1,0.7-3.7,1.4 c-0.6,0.6-0.9,1.6-0.9,3c0,1.3,0.1,2.2,0.5,2.7c0.3,0.5,0.9,0.9,1.8,1.2c1.3,0.4,3.7,0.6,7.4,0.7c1.2,0,4.3,0,9.2,0 c2,0,3.6,0.2,4.7,0.6c1.1,0.4,2,1,2.7,1.9c0.9,1.2,1.3,2.8,1.3,5c0,2.1-0.4,3.7-1,4.9c-0.8,1.4-2.4,2.3-4.7,2.8 c-2.3,0.5-6.4,0.7-12.3,0.7c-3.1,0-5.4-0.1-6.9-0.3c-1.2-0.1-2.4-0.5-3.5-1c-1-0.5-1.7-1.3-2.2-2.3c-0.4-0.9-0.6-2.3-0.6-4.1 L827.6,124.2z M967.4,10.1c2.2,0,4.4,0.9,6,2.5c1.6,1.6,2.4,3.7,2.4,5.9c0,1.1-0.2,2.2-0.6,3.2c-0.4,1-1,1.9-1.8,2.6 c-0.8,0.8-1.8,1.4-2.8,1.9c-2,0.9-4.3,0.9-6.3,0c-1-0.4-1.9-1.1-2.7-1.9c-1.6-1.5-2.5-3.7-2.5-5.9c0-2.2,0.9-4.4,2.5-6 c0.8-0.8,1.6-1.4,2.6-1.8C965.2,10.2,966.3,10,967.4,10.1 M974.8,18.5c0-1-0.2-2-0.5-2.9c-0.7-1.8-2.2-3.2-4-4 c-0.9-0.4-1.9-0.6-2.9-0.6c-1,0-1.9,0.2-2.8,0.5c-0.9,0.3-1.6,0.9-2.3,1.6c-1.4,1.4-2.2,3.3-2.2,5.3c0,1,0.2,1.9,0.6,2.8 c0.7,1.8,2.2,3.2,4,4c2.8,1.1,5.9,0.5,8.1-1.6C974,22.2,974.7,20.4,974.8,18.5 M967.6,13.5c1.3,0,2.4,0.2,3,0.6c0.7,0.4,1,1.1,1,2 c0,0.6-0.2,1.2-0.6,1.7c-0.4,0.5-1,0.8-1.6,0.9l2.1,4.3h-1.8l-2-4.1h-2.1V23H964v-9.5H967.6z M967.3,14.6h-1.7v3.3h1.7 c0.9,0,1.6-0.1,2-0.4c0.4-0.3,0.6-0.7,0.6-1.2c0-0.6-0.2-1-0.6-1.3C968.9,14.7,968.2,14.6,967.3,14.6"></path> </svg> 