<?xml version="1.0" encoding="UTF-8"?> <!-- Generator: Adobe Illustrator 24.0.2, SVG Export Plug-In . SVG Version: 6.00 Build 0) --> <svg xmlns="http://www.w3.org/2000/svg" xmlns:xlink="http://www.w3.org/1999/xlink" version="1.1" id="Vrstva_1" x="0px" y="0px" viewBox="0 0 2500 970" style="enable-background:new 0 0 2500 970;" xml:space="preserve"> <style type="text/css"> .st0{fill:#FFFFFF;} </style> <g> <path class="st0" d="M0,13.6h181v181H0V13.6z"></path> <path class="st0" d="M176.5,956.4V304H4.5v651.7h171.9L176.5,956.4z M1315,962.8V803.1c-25.1,0-46.4-1.3-61.8-3.9 c-18-2.6-31.6-9-40.6-18c-9-9-14.8-21.9-18-39.3c-2.6-16.1-3.9-37.3-3.9-63.1V451.5H1315V304h-124.3V50.3h-171.9v630.5 c0,53.5,4.5,98.5,13.5,134.6c9,35.4,24.5,64.4,45.7,86.3c21.2,21.9,49.6,37.3,83.7,47c34.8,9.7,78.6,14.2,130.7,14.2L1315,962.8z M2299.1,956.4V0.1h-171.9v956.3H2299.1z M853.3,368.4c-47.7-51.5-114.6-77.3-199.6-77.3c-41.2,0-79.2,8.4-112.7,25.1 c-34.1,16.7-62.5,39.9-85.6,69.5l-9,12.2v-94H276.9v651.7h170.7V608.6v12.2c1.9-61.2,16.7-106.3,45.1-135.2 c30.3-30.9,67-46.4,108.8-46.4c49.6,0,87.6,15.5,112.7,45.1c24.5,29.6,37.3,71.5,37.3,124.9v346.5h173.2V586.1 C925.4,493.4,901,420,853.3,368.4L853.3,368.4z M2038.2,629.3c0-47-8.4-90.8-24.5-132c-16.7-40.6-39.9-76.6-68.9-107.5 c-29.6-30.9-65-54.7-106.3-72.1c-41.2-17.4-86.9-25.8-136.5-25.8c-47,0-91.4,9-132.7,26.4c-41.2,18-77.3,41.9-107.5,72.1 s-54.7,66.3-72.1,107.5c-18,41.2-26.4,85.6-26.4,132.7c0,47,8.4,91.4,25.1,132.7s40.6,77.3,70.2,107.5 c29.6,30.3,66.3,54.7,108.8,72.1c42.5,18,89.5,27,139.8,27c145.5,0,235.7-66.3,289.8-128.2l-123.6-94 c-25.8,30.9-87.6,72.8-164.9,72.8c-48.3,0-88.2-11-118.5-33.5c-30.3-21.9-50.9-52.8-61.8-90.8l-1.9-5.8h512L2038.2,629.3z M1527.6,569.4c0-47.7,54.7-130.7,172.6-131.4c117.8,0,173.2,83.1,173.2,130.7L1527.6,569.4z M2494.8,874 c-3.2-7.7-7.7-14.2-13.5-20c-5.8-5.8-12.2-10.3-20-13.5s-16.1-5.1-24.5-5.1c-9,0-16.7,1.9-24.5,5.1c-7.7,3.2-14.2,7.7-20,13.5 c-5.8,5.8-10.3,12.2-13.5,20s-5.2,16.1-5.2,24.5c0,9,1.9,16.7,5.2,24.5c3.2,7.7,7.7,14.2,13.5,20c5.8,5.8,12.2,10.3,20,13.5 c7.7,3.2,16.1,5.1,24.5,5.1c9,0,16.7-1.9,24.5-5.1s14.2-7.7,20-13.5c5.8-5.8,10.3-12.2,13.5-20c3.2-7.7,5.1-16.1,5.1-24.5 S2498.1,881.7,2494.8,874L2494.8,874z M2484.5,919.1c-2.6,6.4-6.4,12.2-10.9,16.7c-4.5,4.5-10.3,8.4-16.7,10.9 c-6.4,2.6-12.9,3.9-20.6,3.9c-7.1,0-14.2-1.3-20.6-3.9c-6.4-2.6-12.2-6.4-16.7-11c-4.5-4.5-8.4-10.3-11-16.7 c-2.6-6.4-3.9-12.9-3.9-20.6c0-7.1,1.3-14.2,3.9-20.6c2.6-6.4,6.4-12.2,10.9-16.7s10.3-8.4,16.7-11c6.4-2.6,12.9-3.9,20.6-3.9 c7.1,0,14.2,1.3,20.6,3.9c6.4,2.6,12.2,6.4,16.7,11c4.5,4.5,8.4,10.3,10.9,16.7c2.6,6.4,3.9,12.9,3.9,20.6 C2488.4,906.2,2487.1,912.6,2484.5,919.1L2484.5,919.1z M2448.5,904.2c5.2-0.6,9-2.6,12.2-5.8s5.2-7.7,5.2-14.2 c0-7.1-1.9-12.2-6.4-16.1c-3.9-3.9-10.9-5.8-19.3-5.8h-28.3v72.8h13.5v-29.6h9.7l18,29.6h14.2L2448.5,904.2z M2441.4,893.3h-16.1 v-20.6h16.1c1.9,0,3.9,0.6,5.8,1.3c1.9,0.6,3.2,1.9,3.9,3.2c1.3,1.3,1.3,3.2,1.3,5.8c0,2.6-0.6,4.5-1.3,5.8 c-1.3,1.3-2.6,2.6-3.9,3.2C2445.3,892.6,2443.3,893.3,2441.4,893.3L2441.4,893.3z"></path> </g> </svg> 