<?xml version="1.0" encoding="UTF-8"?> <!-- Generator: Adobe Illustrator 24.0.2, SVG Export Plug-In . SVG Version: 6.00 Build 0) --> <svg xmlns="http://www.w3.org/2000/svg" xmlns:xlink="http://www.w3.org/1999/xlink" version="1.1" id="Vrstva_1" x="0px" y="0px" viewBox="0 0 2500 475" style="enable-background:new 0 0 2500 475;" xml:space="preserve"> <style type="text/css"> .st0{fill:#FFFFFF;} </style> <path class="st0" d="M1527.4,90v311.7h88V90H1527.4z M835.3,89.4v312H924V159.2l69.2,0.3c22.7,0,38.6,5.5,49.4,17.2 c14,14.8,19.5,38.8,19.5,82.4v142.4h86.1V229.2c0-123.1-78.5-139.7-155.1-139.7L835.3,89.4z M1669.2,90v311.7h142.6 c76.1,0,100.9-12.7,127.6-40.9c19-19.8,31.2-63.7,31.2-111.5c0-43.9-10.3-82.9-28.5-107.2c-32.2-43.6-79.2-52-149.5-52H1669.2z M1756.4,157.6h37.8c54.9,0,90.3,24.6,90.3,88.5s-35.4,88.8-90.3,88.8h-37.8V157.6z M1400.6,90l-73.4,247l-70.3-247h-95.1 l100.4,311.7h126.8L1490.4,90H1400.6z M2011.8,401.7h88V90h-88V401.7z M2258.6,90l-122.8,311.4h86.6l19.5-55.2h145.3l18.5,54.9h94.3 L2376.1,90H2258.6z M2315.6,146.8l53.4,145.8h-108.3L2315.6,146.8z"></path> <path class="st0" d="M267.6,141.7V98.9c4.2-0.3,8.5-0.5,12.7-0.5c117.3-3.7,194.2,100.9,194.2,100.9s-82.9,115.2-172,115.2 c-11.9,0-23.5-1.8-34.6-5.5V179c45.7,5.5,54.9,25.6,82.2,71.3l61-51.2c0,0-44.6-58.4-119.7-58.4 C283.4,140.4,275.5,140.9,267.6,141.7 M267.6,0.2v63.9l12.7-0.8C443.3,57.7,549.7,197,549.7,197s-122,148.5-249.1,148.5 c-11.1,0-21.9-1.1-32.8-2.9v39.6c9,1.1,18.2,1.8,27.2,1.8c118.3,0,203.9-60.5,286.9-131.8c13.7,11.1,70,37.8,81.6,49.4 c-78.7,66-262.3,119.1-366.4,119.1c-10,0-19.5-0.5-29.1-1.6v55.7h449.6V0.2H267.6z M267.6,309v33.8 c-109.4-19.5-139.7-133.4-139.7-133.4s52.6-58.1,139.7-67.6v37h-0.3c-45.7-5.5-81.6,37.2-81.6,37.2S206,288.1,267.6,309 M73.4,204.6 c0,0,64.7-95.6,194.4-105.7V64.1C124.2,75.7,0,197.2,0,197.2s70.3,203.4,267.6,221.9v-37C122.8,364.2,73.4,204.6,73.4,204.6 L73.4,204.6z"></path> </svg> 