<?xml version="1.0" encoding="UTF-8"?> <!-- Generator: Adobe Illustrator 24.0.2, SVG Export Plug-In . SVG Version: 6.00 Build 0) --> <svg xmlns="http://www.w3.org/2000/svg" xmlns:xlink="http://www.w3.org/1999/xlink" version="1.1" id="Vrstva_1" x="0px" y="0px" viewBox="0 0 2500 541" style="enable-background:new 0 0 2500 541;" xml:space="preserve"> <style type="text/css"> .st0{fill:#FFFFFF;} </style> <path class="st0" d="M242.1,1.8C158.4,11.3,86.5,55.2,41.6,124.2c-17.1,26.2-31.9,62.7-38.5,95.5c-4.1,20.5-4.1,81,0,101.5 c17,83.9,69.8,153.1,144.7,190.2c31.4,15.5,60.4,24,96.3,27.8c10,1.1,81.5,1.7,202.5,1.7c158,0,190-0.3,205.9-2.4 c65.8-8.6,119.4-35.1,163.8-81.2c20.3-21.1,33.3-39.2,46-63.9c20.5-40.1,29-76.4,29-122.9s-8.6-82.8-29-122.9 c-12.7-24.7-25.7-42.8-46-63.9c-44.4-46.2-98-72.6-163.8-81.2C636.6,0.3,605.2,0,443.9,0.2C339.5,0.3,248.6,1,242.1,1.8L242.1,1.8z M641.7,184.5c32,8.7,58.2,33.9,66,63.8c3,12.1,3,32.4,0,44.4c-7.9,30.3-34.3,55.5-66.8,63.8c-10.2,2.7-24.3,2.9-195.7,2.9 c-172.4,0-185.4-0.2-195.1-2.9c-31.6-8.6-53.3-27.4-64.6-56c-3.8-9.8-4.3-13-4.3-30s0.5-20.1,4.3-30c12.5-31.9,39.3-52.7,74.9-57.9 c5.2-0.8,90.9-1.3,190.3-1.1C616.6,181.8,632.3,181.9,641.7,184.5L641.7,184.5z M1921.8,211.8v178.4h55.5V33.3h-55.5V211.8z M2380.2,150.1c-25.9,5.7-46.5,20.8-56.8,41.7c-5.7,11.4-5.9,12.5-5.9,28.5c0,14.9,0.5,17.8,4.3,26c9.4,19.8,28.9,32.4,63.3,40.8 c44.4,10.8,54.4,14.8,60.3,24.3c10,16.5-5.7,32.5-33.6,34.1c-22.2,1.3-46.6-5.6-66.1-18.2c-4.9-3.3-9.8-6.5-10.9-7.3 c-1.3-0.8-6.7,5.2-16.2,17.8c-7.9,10.5-14.6,19.7-14.8,20.5c-1.4,5.4,39.3,27.8,61.4,33.9c17.1,4.6,57.9,5.1,73.8,0.8 c25.9-7,45-21.6,55-42c5.9-11.9,6-12.4,6-30.5c0-17.4-0.2-18.7-5.2-28.9c-11.1-22.7-31.9-35.2-76.8-46.5 c-15.4-3.8-30.8-8.4-34.3-10.2c-13.5-7-16.8-17.9-8.2-27.8c6.2-7,16.5-10.5,31.1-10.5c15.9,0,25.9,2.4,42.3,10 c8.1,3.6,14.4,5.7,15.2,4.9c4.4-5.1,25.5-35.4,25.5-36.8c0-2.7-17.1-12.7-30.1-17.6C2435,147.7,2403.8,145,2380.2,150.1 L2380.2,150.1z M1486.7,154.8c-45.8,10.2-76.1,39.5-88.5,85.5c-2.9,10-3.5,17.1-3.5,34.1c-0.2,24.9,2.4,36.8,11.6,56.3 c11.6,24.9,27.8,41.6,51.5,53.1c20.1,9.8,29.8,11.7,56.3,11.9c27.1,0,36.6-2.1,57.9-12.5c14-7,30.9-20,30.9-23.6 c0-1.1-8.4-10.3-18.7-20.6l-18.9-18.9l-9.2,6.5c-30.6,21.4-74.9,15.4-93.9-13c-8.4-12.5-11.9-24-12.1-39.2 c-0.3-30.8,14.8-53.1,41.7-62c18.9-6.3,44.7-3.5,61.2,6.7c2.7,1.6,5.7,3,6.5,3c1.7,0,33.8-40.4,33.8-42.5c0-3.8-29.7-19.2-45.2-23.5 C1534.6,152.4,1500.5,151.7,1486.7,154.8L1486.7,154.8z M1205.2,156.9c-6.3,1.6-17.8,6-25.4,9.7c-11.3,5.6-16.5,9.5-28.1,21.3 c-9.2,9.2-16.2,18.1-19.5,24.4c-20.9,39.7-20.9,84.7,0,124.3c3.3,6.3,10.3,15.2,19.5,24.4c11.6,11.7,16.8,15.5,27.8,20.9 c18.9,9.4,34.6,13,55.8,13c21.9,0,36.2-3.2,54.4-11.9c23.5-11.3,40.8-28.5,52.3-52.3c9.8-19.8,12.5-32.2,12.5-56.3 s-2.7-36.5-12.5-56.3c-11.6-23.9-28.5-40.9-52.3-52.3c-7.8-3.8-19.4-7.9-25.7-9.4C1248.5,152.9,1220.3,153.2,1205.2,156.9 L1205.2,156.9z M1264.7,215.7c47.4,22,46.8,95.3-0.8,117.8c-10,4.8-11.7,5.1-28.1,5.1c-16.2,0-18.2-0.3-27.8-4.9 c-32.7-15.5-45.7-56.9-28.7-90.7C1194.7,212.6,1232.3,200.5,1264.7,215.7z M1636.8,234.3c0.5,65.3,1,77.4,3.3,86.9 c9.4,37.4,35.5,63.4,71.7,71.5c16.5,3.6,44.7,2.4,59.3-2.5c12.1-4.1,22.5-9.2,30-14.9c3-2.2,6-3.6,6.7-3.2c0.8,0.5,1.4,4.8,1.4,9.5 v8.6h49.2V158.6h-55.5v63c0,35.1-0.8,67.7-1.6,73.4c-4.9,30.8-25.5,48.5-56,48.2c-10.8-0.2-13.6-0.8-22.8-5.6 c-17.4-8.9-26-23.5-29-50.3c-0.8-7.6-1.6-39.7-1.6-71.4v-57.4H1636L1636.8,234.3L1636.8,234.3z M2036.5,228.7 c0.5,39.3,1.7,75.3,2.7,82c6.5,42.5,31.4,71.1,70.7,81c30.6,7.9,68.7,1.1,91.4-16.3l7.5-5.7l1,10.3l1.1,10.2h48.9V158.6h-55.5V216 c0,81.8-1.7,94.1-15.5,109.3c-13.6,15.2-34.7,21.6-54.2,16.7c-18.4-4.8-30.5-16.3-36.8-35.5c-3.3-10.2-3.5-13.5-4.1-79.3l-0.5-68.5 h-57.4L2036.5,228.7L2036.5,228.7z"></path> </svg> 