<?xml version="1.0" encoding="UTF-8"?> <!-- Generator: Adobe Illustrator 24.0.2, SVG Export Plug-In . SVG Version: 6.00 Build 0) --> <svg xmlns="http://www.w3.org/2000/svg" xmlns:xlink="http://www.w3.org/1999/xlink" version="1.1" id="Vrstva_1" x="0px" y="0px" viewBox="0 0 2500 2500" style="enable-background:new 0 0 2500 2500;" xml:space="preserve"> <style type="text/css"> .st0{fill:#FFFFFF;} </style> <path class="st0" d="M1250,59.4c657.1,0,1190.6,534.7,1190.6,1190.6S1905.9,2440.6,1250,2440.6S59.4,1907.1,59.4,1250 S594.1,59.4,1250,59.4 M1250,0C559.6,0,0,559.6,0,1250s559.6,1250,1250,1250s1250-559.6,1250-1250S1941.5,0,1250,0z"></path> <path class="st0" d="M1163.3,501.4c0,0-281.6,79.6-534.7,348.1S343.4,1309.4,343.4,1452c55.8-95.1,400.4-619.1,481.2-369.5v596.5 c0,0-4.8,80.8-128.3,48.7c36.8,68.9,226.9,238.8,570.3,273.3c78.4-78.4,180.6-191.3,180.6-191.3l171.1,145 c0,0,307.7-199.6,428.9-489.5c-112.9,73.7-249.5,244.8-320.8,124.8v-726c0,0,183-274.5,211.5-287.5 c-72.5,13.1-327.9,97.4-462.2,270.9c-38-41.6-143.8-42.8-143.8-42.8s83.2,68.9,84.4,131.9s0,588.2,0,648.8 c-57,58.2-117.6,89.1-156.8,89.1c-91.5,0-117.6-32.1-142.6-64.2V847.2c0,0-45.2,38-80.8-23.8S999.3,641.6,1163.3,501.4z"></path> </svg> 