<?xml version="1.0" standalone="no"?>
<!DOCTYPE svg PUBLIC "-//W3C//DTD SVG 20010904//EN"
 "http://www.w3.org/TR/2001/REC-SVG-20010904/DTD/svg10.dtd">
<svg version="1.0" xmlns="http://www.w3.org/2000/svg"
 width="832.000000pt" height="832.000000pt" viewBox="0 0 832.000000 832.000000"
 preserveAspectRatio="xMidYMid meet">
<metadata>
Created by potrace 1.11, written by Peter Selinger 2001-2013
</metadata>
<g transform="translate(0.000000,832.000000) scale(0.100000,-0.100000)"
fill="#000000" stroke="none">
<path d="M3559 7915 c-2 -2 -33 -6 -69 -9 -36 -3 -76 -8 -90 -10 -14 -2 -59
-10 -100 -16 -94 -15 -108 -18 -128 -24 -9 -3 -33 -8 -52 -11 -19 -3 -51 -11
-70 -17 -43 -13 -65 -20 -65 -18 0 0 -27 -9 -60 -20 -33 -12 -67 -23 -75 -25
-82 -22 -478 -199 -500 -225 -3 -3 -36 -24 -75 -47 -38 -23 -80 -49 -93 -60
-12 -10 -45 -34 -73 -53 -207 -142 -457 -396 -624 -635 -27 -38 -54 -73 -60
-77 -5 -4 -6 -8 -1 -8 5 0 2 -8 -6 -17 -29 -32 -109 -176 -173 -308 -60 -124
-79 -169 -140 -333 -15 -41 -51 -112 -81 -159 -29 -47 -56 -93 -59 -104 -4
-10 -11 -19 -16 -19 -5 0 -9 -9 -9 -20 0 -11 -4 -20 -10 -20 -5 0 -10 -9 -10
-20 0 -11 -4 -20 -10 -20 -5 0 -10 -4 -10 -9 0 -5 -22 -55 -49 -112 -48 -103
-120 -277 -125 -301 -3 -12 -15 -45 -33 -88 -3 -8 -7 -20 -9 -27 -1 -6 -14
-47 -28 -90 -24 -76 -73 -253 -82 -302 -3 -12 -11 -51 -19 -85 -8 -33 -16 -72
-19 -86 -3 -14 -7 -34 -9 -45 -3 -11 -7 -41 -11 -66 -7 -48 -13 -88 -21 -129
-2 -14 -7 -52 -11 -85 -3 -33 -8 -69 -10 -79 -5 -29 -16 -246 -16 -323 0 -141
15 -306 41 -448 6 -33 14 -71 17 -85 3 -14 7 -36 10 -50 3 -14 9 -38 14 -55
36 -119 65 -208 86 -259 13 -33 26 -83 29 -110 7 -72 20 -164 30 -216 5 -21
35 -152 39 -170 20 -80 28 -108 36 -125 5 -11 14 -38 20 -60 19 -63 108 -268
151 -346 21 -40 39 -76 39 -80 0 -5 5 -9 10 -9 6 0 10 -5 10 -12 0 -13 119
-191 132 -196 4 -2 8 -10 8 -17 0 -7 3 -15 8 -17 4 -2 25 -25 47 -53 22 -27
56 -66 75 -87 19 -20 42 -45 51 -55 24 -27 107 -103 169 -153 30 -25 57 -48
60 -51 3 -3 45 -32 95 -65 119 -78 182 -113 320 -174 35 -16 202 -74 215 -75
3 0 11 -4 18 -8 6 -5 12 -6 12 -3 0 2 15 0 33 -5 17 -6 41 -12 52 -14 11 -3
40 -9 65 -15 134 -29 204 -38 375 -46 l130 -6 120 -63 c98 -51 222 -107 370
-166 85 -34 310 -96 425 -118 155 -29 236 -36 440 -36 207 0 345 11 480 40 14
3 39 8 55 11 60 10 283 72 335 91 8 3 24 8 34 10 11 2 24 7 30 12 6 5 29 14
51 21 65 20 170 67 330 147 155 78 160 79 235 88 74 9 124 16 140 20 8 2 31 7
50 10 19 3 42 8 51 11 10 2 30 6 45 9 16 2 76 17 134 34 273 78 515 198 735
365 89 67 271 243 331 321 21 27 45 57 53 65 17 17 115 165 149 225 40 70 152
303 152 317 0 8 4 18 9 23 8 8 68 181 76 219 1 6 5 18 8 26 8 20 54 216 62
260 3 19 7 44 9 55 2 11 6 45 10 75 4 30 9 66 11 80 26 145 26 698 0 840 -3
14 -7 50 -10 80 -4 30 -8 62 -10 70 -3 8 -7 33 -10 55 -3 22 -8 51 -12 65 -3
14 -7 32 -9 40 -9 46 -14 76 -15 82 0 4 -5 22 -10 40 -6 18 -12 44 -15 58 -6
34 -82 290 -93 315 -5 11 -30 73 -55 137 -40 103 -46 130 -51 215 -5 95 -12
173 -21 217 -2 12 -6 42 -9 67 -3 25 -8 56 -10 70 -3 13 -8 38 -11 54 -7 45
-64 267 -70 277 -3 4 -7 16 -9 25 -6 33 -56 167 -98 263 -35 81 -59 130 -131
265 -12 22 -123 190 -143 215 -236 304 -484 494 -816 624 -62 24 -125 47 -142
51 -16 5 -34 9 -40 11 -62 17 -127 33 -160 39 -22 5 -46 9 -53 11 -57 11 -162
28 -187 29 -16 1 -33 3 -36 4 -3 0 -55 49 -115 109 -166 163 -217 206 -383
320 -82 57 -310 182 -341 188 -7 1 -41 14 -75 29 -16 8 -43 17 -60 21 -16 4
-34 10 -40 14 -8 6 -91 30 -155 44 -8 2 -33 9 -55 14 -22 6 -56 13 -75 16 -19
3 -45 8 -57 10 -11 3 -43 7 -70 11 -26 4 -59 9 -73 12 -29 5 -496 13 -501 8z
m376 -150 c55 -2 114 -7 130 -9 61 -7 121 -16 145 -21 14 -3 36 -7 50 -10 14
-2 59 -14 100 -25 41 -11 84 -23 95 -25 18 -4 38 -11 90 -31 11 -4 23 -8 27
-8 3 -1 10 -4 14 -8 4 -5 13 -8 20 -8 34 0 373 -179 382 -202 2 -4 10 -8 17
-8 7 0 15 -3 17 -7 2 -5 21 -20 43 -35 22 -15 52 -39 67 -53 15 -14 29 -25 32
-25 3 0 18 -12 34 -27 16 -16 52 -49 81 -75 28 -27 49 -48 46 -49 -28 -6 -51
2 -91 31 -27 19 -66 46 -89 59 -65 38 -298 157 -324 166 -13 4 -40 14 -60 23
-20 9 -40 17 -46 18 -5 1 -48 16 -95 32 -47 16 -87 29 -90 29 -3 1 -25 6 -50
13 -25 7 -54 14 -65 16 -11 2 -31 7 -45 10 -166 37 -347 57 -525 57 -105 0
-287 -10 -330 -19 -11 -2 -36 -7 -55 -10 -72 -11 -87 -13 -155 -28 -39 -8 -82
-19 -95 -24 -14 -5 -27 -10 -30 -10 -19 -1 -141 -41 -225 -74 -200 -79 -405
-198 -573 -331 -85 -67 -269 -247 -353 -346 -46 -54 -69 -71 -159 -115 -107
-53 -144 -74 -260 -152 -61 -41 -84 -59 -153 -121 -16 -13 -31 -22 -34 -20 -4
5 34 84 47 97 3 3 12 17 20 32 36 63 84 143 90 148 4 3 15 20 25 38 11 17 23
32 27 32 4 0 8 5 8 10 0 33 256 318 390 434 53 46 207 162 248 187 20 13 39
25 42 28 9 11 249 145 260 146 3 0 14 6 25 12 54 30 321 132 390 149 11 3 27
7 35 9 8 2 16 4 18 4 1 1 4 1 7 1 3 1 23 7 46 16 23 8 44 12 47 9 2 -2 12 0
22 5 9 5 32 11 51 14 19 3 57 10 84 16 28 6 73 13 100 16 28 3 64 8 80 10 17
2 75 7 130 10 55 4 101 7 102 8 2 2 90 -2 218 -9z m10 -356 c44 -1 84 -4 88
-7 4 -2 34 -5 66 -7 53 -3 137 -16 201 -31 14 -3 34 -7 45 -9 11 -1 40 -8 65
-15 25 -7 52 -14 60 -15 32 -7 247 -84 290 -103 51 -24 37 -23 -135 13 -86 18
-117 23 -175 30 -25 3 -56 8 -70 10 -166 29 -590 24 -810 -10 -25 -4 -56 -8
-70 -10 -39 -6 -93 -15 -110 -20 -8 -2 -30 -7 -48 -10 -18 -3 -58 -12 -90 -21
-31 -8 -64 -17 -72 -19 -224 -58 -561 -200 -775 -328 -59 -35 -91 -42 -45 -10
13 9 31 24 39 32 25 25 188 151 195 151 4 0 16 8 27 18 10 11 32 25 47 33 15
8 32 18 37 22 51 41 365 184 445 202 8 2 47 13 85 25 66 19 231 52 320 65 22
2 96 8 165 11 69 4 127 8 129 10 2 2 7 2 10 0 4 -3 42 -6 86 -7z m1865 -483
c96 -25 178 -50 215 -66 22 -9 57 -23 65 -25 3 0 28 -11 55 -24 28 -13 53 -24
57 -23 3 1 12 -5 18 -13 7 -8 17 -15 23 -15 10 0 157 -88 167 -100 3 -3 21
-17 40 -30 68 -47 236 -207 310 -295 81 -95 206 -296 274 -438 50 -104 116
-270 116 -290 0 -8 3 -17 7 -21 4 -3 8 -12 9 -19 1 -7 11 -46 22 -87 12 -42
24 -91 27 -110 3 -18 8 -38 11 -44 9 -18 -17 17 -83 111 -185 264 -439 537
-688 739 -32 27 -73 64 -90 83 -89 101 -231 234 -359 336 -117 92 -135 112
-218 230 -39 55 -74 102 -79 103 -11 4 -12 22 -1 22 4 0 50 -11 102 -24z
m-1594 -120 c45 -3 103 -8 130 -12 27 -3 63 -8 79 -9 17 -2 30 -4 30 -5 0 -2
17 -5 60 -13 63 -11 131 -26 145 -31 8 -3 26 -7 40 -10 14 -2 63 -17 110 -32
47 -15 90 -29 95 -30 21 -5 110 -39 115 -44 3 -3 32 -16 65 -29 80 -32 274
-133 358 -187 37 -24 70 -44 73 -44 3 0 17 -11 32 -25 15 -14 32 -25 39 -25 7
0 13 -4 13 -8 0 -4 12 -15 28 -24 15 -9 36 -25 47 -35 11 -10 40 -34 65 -53
25 -19 54 -44 66 -55 12 -11 45 -43 75 -71 112 -107 212 -218 299 -334 14 -18
31 -39 38 -46 6 -7 12 -15 12 -18 0 -2 19 -34 43 -70 79 -121 139 -225 179
-308 50 -103 119 -268 112 -268 -2 0 2 -13 11 -29 8 -17 17 -40 19 -53 3 -13
5 -23 6 -23 1 0 3 -7 5 -15 2 -8 13 -49 25 -90 12 -41 28 -106 36 -145 7 -38
15 -79 18 -91 2 -12 7 -43 10 -70 4 -27 9 -65 11 -84 16 -118 20 -301 10 -460
-6 -97 -8 -124 -20 -203 -2 -15 -7 -47 -10 -70 -7 -45 -47 -227 -65 -292 -6
-22 -12 -47 -14 -55 -10 -38 -72 -204 -108 -290 -50 -119 -170 -344 -210 -395
-5 -5 -29 -41 -55 -80 -26 -38 -52 -75 -57 -81 -6 -7 -20 -24 -31 -40 -11 -15
-25 -32 -30 -38 -6 -6 -31 -37 -57 -68 -25 -31 -48 -54 -52 -51 -3 4 -6 1 -6
-5 0 -16 -170 -182 -260 -254 -41 -34 -76 -65 -78 -69 -2 -5 -10 -9 -17 -9 -7
0 -15 -3 -17 -8 -4 -9 -164 -122 -173 -122 -4 0 -26 -14 -51 -30 -54 -38 -298
-159 -379 -189 -33 -13 -67 -26 -75 -30 -42 -22 -306 -96 -415 -117 -22 -4
-47 -9 -55 -10 -85 -19 -320 -38 -460 -37 -115 0 -297 10 -341 18 -13 3 -41 7
-64 10 -22 3 -53 8 -70 12 -16 3 -39 7 -50 9 -54 7 -307 74 -350 93 -11 5 -54
21 -95 36 -260 97 -554 272 -789 472 -73 62 -244 233 -301 302 -25 30 -51 60
-58 67 -6 7 -12 17 -12 22 0 6 -4 12 -8 14 -10 4 -142 187 -142 197 0 5 -11
21 -24 36 -14 16 -23 32 -20 36 2 4 0 10 -5 14 -11 6 -23 28 -98 179 -75 151
-179 426 -188 496 -1 8 -4 22 -8 30 -3 8 -9 31 -12 50 -4 19 -11 55 -15 80
-59 293 -67 591 -25 917 6 49 61 308 65 308 1 0 3 7 5 15 1 8 11 42 21 75 10
33 17 63 16 68 -1 4 2 7 8 7 6 0 9 3 8 8 -2 10 13 65 22 77 4 6 17 35 28 65
35 94 171 364 201 397 6 7 11 15 11 18 0 10 83 130 92 133 4 2 8 9 8 15 0 7
10 23 23 37 12 14 40 48 62 75 85 108 257 284 352 362 62 51 83 68 106 88 32
28 212 148 290 194 111 65 339 175 387 186 8 2 40 13 70 25 55 22 168 57 205
65 11 3 34 8 50 12 17 4 32 7 35 8 3 1 19 4 35 8 17 4 41 9 55 12 14 3 36 7
50 10 44 9 165 23 275 32 39 3 71 6 72 7 4 3 248 -2 319 -8z m-2482 -455 c-24
-49 -75 -118 -128 -174 -14 -15 -26 -30 -26 -33 0 -3 -7 -13 -16 -21 -25 -25
-158 -204 -184 -248 -13 -22 -27 -42 -30 -45 -7 -6 -63 -98 -109 -180 -43 -77
-131 -257 -131 -269 0 -5 -5 -13 -12 -17 -7 -4 -8 -3 -4 4 4 6 9 33 12 59 2
26 9 64 14 83 5 19 11 46 14 60 26 132 86 312 118 355 107 144 242 279 398
397 41 31 80 62 85 67 23 23 23 8 -1 -38z m5142 -760 c92 -107 230 -307 335
-486 l53 -90 0 -210 c0 -119 -6 -249 -13 -300 -7 -49 -15 -103 -17 -120 -2
-16 -9 -55 -15 -85 -6 -30 -12 -60 -13 -67 -4 -23 -12 -23 -12 0 -1 41 -14
212 -19 250 -9 68 -14 102 -19 127 -3 13 -8 42 -12 65 -5 40 -35 175 -54 250
-6 22 -13 50 -15 62 -8 35 -94 281 -122 348 -14 33 -57 125 -97 205 -87 177
-86 174 -45 126 19 -22 48 -55 65 -75z m-5920 -229 c-13 -22 -34 -254 -41
-462 -1 -47 -8 -107 -15 -135 -16 -69 -26 -129 -36 -210 -1 -16 -5 -48 -8 -70
-3 -22 -8 -67 -10 -100 -3 -40 -20 -98 -50 -171 -25 -62 -47 -123 -50 -137 -2
-14 -9 -35 -16 -46 -6 -12 -9 -21 -6 -21 3 0 0 -15 -5 -32 -36 -123 -83 -464
-80 -583 0 -14 -2 -16 -8 -7 -4 7 -7 28 -6 47 0 19 -2 35 -5 35 -3 0 -7 15 -8
33 -2 17 -5 55 -8 82 -12 127 -6 510 10 616 3 13 7 47 11 74 3 28 9 66 11 85
8 60 44 242 61 305 8 33 16 65 17 70 2 6 8 30 15 55 8 25 14 50 16 55 1 6 4
17 7 25 3 8 16 47 28 85 27 85 60 172 107 285 19 47 40 97 46 112 6 15 15 24
19 22 5 -3 6 -9 4 -12z m6569 -959 c14 -49 30 -97 34 -108 9 -22 40 -144 47
-185 3 -14 7 -33 10 -42 7 -23 17 -74 30 -153 3 -16 7 -37 9 -45 6 -26 19
-128 32 -260 10 -96 10 -514 1 -605 -12 -114 -20 -174 -32 -231 -2 -12 -7 -39
-10 -60 -10 -58 -67 -278 -76 -289 -5 -5 -9 -13 -9 -18 -3 -27 -25 -98 -32
-103 -5 -3 -9 -12 -9 -20 0 -29 -136 -312 -181 -376 -11 -14 -19 -31 -19 -37
0 -6 -4 -11 -8 -11 -5 0 -13 -10 -19 -22 -12 -26 -132 -187 -172 -231 -104
-115 -311 -297 -337 -297 -4 0 -15 -6 -23 -14 -32 -28 -307 -172 -345 -181 -6
-1 -18 -5 -26 -8 -61 -25 -194 -68 -256 -82 -11 -2 -44 -10 -76 -18 -63 -16
-68 -6 -15 29 108 71 433 375 547 513 25 30 55 66 68 79 12 14 22 28 22 31 0
3 14 20 30 38 17 18 30 37 30 42 0 6 5 11 10 11 6 0 10 6 10 14 0 8 3 16 8 18
10 4 75 105 102 159 13 24 26 46 29 49 11 8 121 257 121 273 0 7 5 18 12 25 7
7 9 12 5 12 -4 0 -1 13 7 29 8 15 17 39 20 52 3 13 14 53 26 89 22 72 76 328
84 405 3 28 8 69 11 93 15 128 21 414 12 532 -2 23 6 50 23 80 106 182 209
470 235 655 3 22 8 47 10 55 2 8 7 38 10 65 3 28 7 59 9 70 3 11 5 30 5 43 1
12 3 22 5 22 2 0 16 -39 31 -87z m-6688 -390 c1 -52 12 -207 18 -250 2 -16 6
-50 10 -78 3 -27 10 -72 15 -100 6 -27 12 -63 14 -80 2 -16 6 -37 9 -45 3 -8
8 -28 11 -45 17 -100 97 -362 146 -480 7 -16 16 -39 20 -50 23 -58 147 -306
181 -362 21 -36 39 -67 39 -69 0 -7 65 -99 72 -102 4 -2 8 -8 8 -13 0 -9 63
-101 91 -132 9 -9 33 -45 53 -80 20 -34 43 -71 49 -81 60 -98 78 -126 87 -131
5 -3 10 -10 10 -16 0 -19 -215 133 -305 216 -113 103 -275 269 -275 281 0 4
-32 43 -56 68 -35 37 -162 245 -209 344 -31 64 -60 124 -64 132 -24 45 -21
661 4 780 3 14 7 47 11 74 3 26 14 92 25 145 28 139 34 151 36 74z m6229 -905
c-6 -89 -11 -138 -21 -203 -2 -16 -7 -48 -10 -70 -3 -22 -8 -48 -11 -57 -5
-18 -11 -46 -20 -93 -3 -16 -14 -61 -25 -99 -12 -38 -22 -76 -24 -85 -4 -18
-55 -156 -80 -216 -75 -178 -207 -396 -317 -525 -7 -9 -29 -36 -49 -60 -175
-215 -477 -486 -709 -636 -25 -16 -49 -32 -55 -37 -19 -14 -81 -52 -120 -74
-31 -17 -64 -23 -150 -28 -226 -12 -605 -4 -875 19 -19 2 -60 4 -90 6 -50 2
-52 3 -25 11 17 5 46 11 65 14 19 2 46 7 60 10 63 13 77 16 100 21 154 31 417
118 577 190 28 13 57 24 62 24 6 0 11 5 11 10 0 6 8 10 18 10 10 0 23 5 30 12
7 7 12 8 12 2 0 -5 3 -5 8 1 4 6 25 19 47 30 76 38 180 99 183 107 2 4 8 8 13
8 11 0 147 87 167 107 8 7 23 18 35 25 28 15 142 104 232 182 103 89 250 239
335 342 41 49 77 91 80 94 3 3 27 34 52 70 26 36 51 70 56 75 57 69 254 428
319 580 29 67 113 302 113 315 0 5 3 10 6 10 4 0 4 -42 0 -92z m-6215 -625
c13 -21 27 -42 31 -48 5 -5 32 -41 61 -79 193 -256 454 -475 802 -671 125 -70
129 -73 210 -170 107 -128 268 -291 401 -405 41 -35 217 -173 240 -187 30 -19
-84 -7 -216 22 -41 9 -82 18 -90 19 -71 12 -282 91 -395 149 -109 56 -257 154
-365 242 -56 46 -230 225 -282 291 -111 139 -227 333 -302 501 -25 58 -83 217
-92 253 -2 8 -10 39 -18 68 -8 28 -13 52 -11 52 2 0 14 -17 26 -37z m1414
-1049 c18 -3 99 -44 160 -80 77 -46 251 -134 335 -169 36 -15 79 -33 95 -40
32 -14 78 -29 83 -26 1 1 15 -5 32 -14 16 -8 37 -16 47 -18 10 -2 56 -15 103
-30 47 -14 96 -29 110 -31 14 -3 45 -11 70 -16 25 -6 63 -15 85 -19 88 -17
158 -47 113 -48 -12 0 -76 -9 -133 -18 -98 -16 -181 -23 -325 -30 -73 -3 -91
0 -125 18 -22 12 -45 27 -51 32 -6 6 -27 19 -47 30 -20 11 -37 23 -37 27 0 5
-5 8 -11 8 -10 0 -257 180 -291 212 -7 7 -42 38 -78 68 -74 62 -183 167 -160
154 8 -5 20 -9 25 -10z m1621 -568 c20 -6 165 -34 209 -40 11 -2 34 -6 50 -9
17 -3 53 -9 80 -12 28 -3 61 -8 75 -10 26 -4 91 -12 175 -21 28 -3 66 -7 85
-9 69 -9 307 -18 453 -19 81 0 147 -3 147 -6 0 -9 -200 -81 -262 -94 -12 -3
-59 -15 -103 -26 -80 -20 -91 -22 -195 -40 -119 -20 -183 -24 -380 -24 -189 0
-332 8 -350 19 -4 3 -31 7 -60 10 -29 3 -56 8 -61 11 -5 2 -23 7 -41 9 -54 7
-318 93 -460 150 -17 7 -26 27 -10 23 5 -2 116 9 187 17 11 2 89 15 120 21 37
7 70 13 109 20 22 3 50 10 63 15 13 5 23 7 23 5 0 -1 21 3 48 10 46 12 54 12
98 0z"/>
<path d="M2066 4965 c4 -11 24 -54 45 -95 21 -41 93 -187 159 -325 67 -137
149 -304 181 -371 32 -67 59 -124 59 -129 0 -4 9 -19 19 -33 10 -15 20 -30 20
-34 5 -22 45 -103 52 -106 5 -2 9 -8 9 -14 0 -11 39 -94 189 -398 l100 -205
185 0 185 0 87 180 c49 99 89 182 89 185 1 3 36 77 79 165 89 182 170 350 281
580 118 244 219 452 259 534 20 41 34 76 31 79 -6 6 -395 8 -405 2 -9 -6 -100
-199 -100 -213 0 -6 -6 -18 -13 -26 -8 -9 -21 -34 -30 -56 -8 -22 -33 -78 -55
-125 -22 -47 -62 -134 -90 -195 -28 -60 -69 -150 -92 -200 -23 -49 -49 -108
-58 -130 -8 -22 -21 -47 -29 -56 -7 -8 -13 -20 -13 -26 0 -18 -113 -253 -122
-253 -4 0 -8 4 -8 9 0 5 -25 62 -55 126 -30 63 -55 118 -55 120 0 2 -20 46
-44 97 -46 97 -137 294 -179 388 -28 64 -74 163 -125 270 -38 82 -71 158 -72
165 0 3 -9 21 -20 40 -11 20 -20 42 -20 50 0 17 13 16 -252 18 -194 2 -198 2
-192 -18z"/>
<path d="M4245 4982 c-20 -3 -20 -9 -19 -860 1 -471 2 -859 3 -862 0 -3 88 -5
194 -5 l192 0 2 270 c1 149 2 284 2 301 l1 32 253 0 253 0 64 -99 c36 -54 68
-99 73 -99 4 0 7 -4 7 -9 0 -5 36 -63 81 -128 44 -65 103 -152 131 -193 l51
-75 216 1 c119 1 219 2 223 3 4 0 -23 45 -59 99 -37 53 -123 178 -190 277 -68
99 -126 185 -130 190 -16 20 -43 64 -43 70 0 3 10 5 23 5 48 0 119 33 164 76
25 24 42 44 38 44 -5 0 -1 8 7 18 13 14 36 70 44 107 15 64 18 121 18 300 -1
217 -4 259 -25 323 -41 123 -113 183 -254 208 -37 7 -1276 12 -1320 6z m1128
-323 c40 -11 67 -43 74 -87 5 -39 5 -293 -1 -318 -2 -12 -10 -31 -17 -42 -29
-46 -41 -47 -437 -47 l-375 0 1 215 c1 118 1 232 2 253 l0 37 358 0 c217 0
372 -4 395 -11z"/>
</g>
</svg>
